<svg width="24" height="24" viewBox="0 0 24 24" fill="none" xmlns="http://www.w3.org/2000/svg">
<g id="dot-horizontal">
<g id="Icon">
<path d="M12 7.20039C10.6745 7.20039 9.60002 6.12587 9.60002 4.80039C9.60002 3.47491 10.6745 2.40039 12 2.40039C13.3255 2.40039 14.4 3.47491 14.4 4.80039C14.4 6.12587 13.3255 7.20039 12 7.20039Z" fill="#9C9C9C"/>
<path d="M12 14.4004C10.6745 14.4004 9.60002 13.3259 9.60002 12.0004C9.60002 10.6749 10.6745 9.60039 12 9.60039C13.3255 9.60039 14.4 10.6749 14.4 12.0004C14.4 13.3259 13.3255 14.4004 12 14.4004Z" fill="#9C9C9C"/>
<path d="M12 21.6004C10.6745 21.6004 9.60002 20.5259 9.60002 19.2004C9.60002 17.8749 10.6745 16.8004 12 16.8004C13.3255 16.8004 14.4 17.8749 14.4 19.2004C14.4 20.5259 13.3255 21.6004 12 21.6004Z" fill="#9C9C9C"/>
</g>
</g>
</svg>
