<svg width="24" height="24" viewBox="0 0 24 24" fill="none" xmlns="http://www.w3.org/2000/svg">
<g id="user-profile-02">
<g id="Icon">
<path d="M2.39999 20.5128C2.39999 16.7373 5.55428 13.6766 12 13.6766C18.4457 13.6766 21.6 16.7373 21.6 20.5128C21.6 21.1135 21.1618 21.6004 20.6212 21.6004H3.37882C2.83823 21.6004 2.39999 21.1135 2.39999 20.5128Z" fill="#898989"/>
<path d="M15.6 6.00039C15.6 7.98862 13.9882 9.60039 12 9.60039C10.0118 9.60039 8.39999 7.98862 8.39999 6.00039C8.39999 4.01217 10.0118 2.40039 12 2.40039C13.9882 2.40039 15.6 4.01217 15.6 6.00039Z" fill="#898989"/>
<path d="M2.39999 20.5128C2.39999 16.7373 5.55428 13.6766 12 13.6766C18.4457 13.6766 21.6 16.7373 21.6 20.5128C21.6 21.1135 21.1618 21.6004 20.6212 21.6004H3.37882C2.83823 21.6004 2.39999 21.1135 2.39999 20.5128Z" stroke="#898989" stroke-width="1.5"/>
<path d="M15.6 6.00039C15.6 7.98862 13.9882 9.60039 12 9.60039C10.0118 9.60039 8.39999 7.98862 8.39999 6.00039C8.39999 4.01217 10.0118 2.40039 12 2.40039C13.9882 2.40039 15.6 4.01217 15.6 6.00039Z" stroke="#898989" stroke-width="1.5"/>
</g>
</g>
</svg>
