<svg width="25" height="20" viewBox="0 0 25 20" fill="none" xmlns="http://www.w3.org/2000/svg">
<path id="Union" fill-rule="evenodd" clip-rule="evenodd" d="M10.2257 9.9521H0V4.39096C0 3.49357 0.743855 2.76609 1.64124 2.76609H6.83994V0.62487C6.83994 0.279764 7.11971 0 7.46482 0H7.48119H17.5188H17.5352C17.8803 0 18.1601 0.279764 18.1601 0.62487V2.76609H23.3588C24.2561 2.76609 25 3.49357 25 4.39096V9.9521H14.7743V12.0017H10.2257V9.9521ZM16.8733 1.24974H8.12243V2.76609H16.8733V1.24974ZM16.0568 12.6265V11.2018H25V18.3751C25 19.2725 24.2561 20 23.3588 20H1.64124C0.743868 20 0 19.2725 0 18.3751V11.2018H8.94323V12.6265C8.94323 12.9716 9.22299 13.2514 9.5681 13.2514H9.58447H15.4155H15.4319C15.777 13.2514 16.0568 12.9716 16.0568 12.6265Z" fill="#FF8A00"/>
</svg>
