<svg width="37" height="25" viewBox="0 0 37 25" fill="none" xmlns="http://www.w3.org/2000/svg">
<g id="Group 70">
<path id="Union" fill-rule="evenodd" clip-rule="evenodd" d="M30.0553 10.1933L21.3521 10.1731C21.0557 10.1724 20.8161 9.93149 20.8171 9.63513C20.818 9.33894 21.059 9.09964 21.3551 9.10065L33.3482 9.14174L34.5614 8.59002C34.8285 8.46856 35 8.20222 35 7.90881C35 7.58581 34.7928 7.29926 34.486 7.19811L18.9309 2.06921C18.6511 1.97693 18.3489 1.97693 18.0691 2.06921L2.48602 7.20734C2.19596 7.30298 2 7.57393 2 7.87935C2 8.18452 2.19564 8.45531 2.48537 8.55115L17.7445 13.599C18.2356 13.7615 18.7655 13.765 19.2587 13.6089L30.0553 10.1933ZM19.3899 14.6506C18.8103 14.8305 18.1898 14.8303 17.6103 14.6502L10.2341 12.3574C9.21846 13.982 8.67414 15.8407 8.32227 17.6807C8.2792 17.9059 8.3224 18.1388 8.44008 18.3356C8.55688 18.531 8.7399 18.678 8.95588 18.7499L17.2522 21.5114C18.0622 21.781 18.9379 21.7812 19.7481 21.5119L28.0584 18.7496C28.2742 18.6779 28.4571 18.5311 28.5737 18.3359C28.6915 18.1389 28.7345 17.9058 28.6911 17.6804C28.3367 15.8406 27.7955 13.982 26.7799 12.3574L19.3899 14.6506ZM33.9517 17.2916L33.966 17.3508L34.6719 22.3155V22.4013C34.6719 22.6917 34.4365 22.9272 34.146 22.9272H31.5025C31.2084 22.9269 30.9719 22.685 30.9785 22.3909L30.9801 22.3155L31.686 17.3508L31.6904 17.3255C31.7339 17.0735 31.9526 16.8893 32.2084 16.8893H32.2896V10.6119L33.3484 10.2756V16.8893H33.4401C33.683 16.8893 33.8944 17.0555 33.9517 17.2916Z" fill="#FF8A00"/>
</g>
</svg>
