<svg width="28" height="28" viewBox="0 0 28 28" fill="none" xmlns="http://www.w3.org/2000/svg">
<g id="settings">
<path id="Icon" fill-rule="evenodd" clip-rule="evenodd" d="M12.5689 2.33301C12.2416 2.33301 11.935 2.49318 11.748 2.76183L10.2154 4.96438C9.81071 5.5417 9.13807 5.82459 8.42414 5.77416L5.71502 5.60408C5.39418 5.58394 5.08321 5.71927 4.87929 5.9678L3.43675 7.72591C3.22055 7.98941 3.15345 8.34488 3.25871 8.66906L4.05202 11.1122C4.15576 11.4486 4.16904 11.809 4.09479 12.1493C4.01956 12.4857 3.85829 12.8033 3.61884 13.0604L1.82409 14.9907C1.59569 15.2364 1.50566 15.5801 1.58434 15.9062L2.09592 18.0262C2.17434 18.3512 2.40999 18.6155 2.72389 18.7305L5.18979 19.6343C5.52217 19.7629 5.80932 19.972 6.02665 20.2353C6.2425 20.4995 6.38952 20.8183 6.44655 21.1634L6.86636 23.7421C6.91962 24.0693 7.13157 24.3488 7.43225 24.4884L9.48887 25.4433C9.77993 25.5784 10.1182 25.5657 10.3982 25.409L12.7053 24.1183C13.0146 23.9445 13.3597 23.8574 13.7049 23.857C13.8844 23.8574 14.0638 23.8811 14.2389 23.928C14.4016 23.9716 14.56 24.0351 14.7099 24.1183L17.1219 25.424C17.4032 25.5763 17.7403 25.5848 18.029 25.4469L20.0755 24.4695C20.3751 24.3264 20.5842 24.0439 20.6335 23.7156L21.01 21.2073C21.0645 20.8602 21.2096 20.539 21.4249 20.2726C21.6388 20.0089 21.9225 19.7988 22.253 19.6689L24.7418 18.6935C25.0498 18.5728 25.2782 18.3076 25.3518 17.9851L25.841 15.8436C25.9144 15.522 25.8245 15.1848 25.6007 14.9425L23.7969 12.9893C23.553 12.7312 23.3829 12.423 23.3003 12.0954C23.2191 11.7701 23.224 11.4254 23.3268 11.0918L24.108 8.58774C24.2084 8.26594 24.1399 7.91522 23.9258 7.65484L22.516 5.9401C22.3097 5.68921 21.9944 5.55413 21.6705 5.57786L18.9906 5.77416C18.6356 5.79922 18.2865 5.7316 17.9757 5.58613C17.663 5.43879 17.3887 5.21222 17.1846 4.92338L15.6674 2.759C15.4802 2.49199 15.1746 2.33301 14.8485 2.33301H12.5689ZM13.6307 17.9516C15.8551 17.9516 17.6586 16.1878 17.6586 14.0121C17.6586 11.8363 15.8551 10.0725 13.6307 10.0725C11.4062 10.0725 9.60272 11.8363 9.60272 14.0121C9.60272 16.1878 11.4062 17.9516 13.6307 17.9516Z" fill="#ABABAB"/>
</g>
</svg>
